<?xml version="1.0" standalone="no"?>
<!DOCTYPE svg PUBLIC "-//W3C//DTD SVG 20010904//EN"
 "http://www.w3.org/TR/2001/REC-SVG-20010904/DTD/svg10.dtd">
<svg version="1.0" xmlns="http://www.w3.org/2000/svg"
 width="539.000000pt" height="438.000000pt" viewBox="0 0 539.000000 438.000000"
 preserveAspectRatio="xMidYMid meet">
<metadata>
Created by potrace 1.16, written by Peter Selinger 2001-2019
</metadata>
<g transform="translate(0.000000,438.000000) scale(0.100000,-0.100000)"
fill="#000000" stroke="none">
<path d="M1937 4190 c-16 -13 -33 -34 -39 -49 -5 -14 -52 -204 -104 -421 -52
-217 -124 -516 -160 -664 -35 -148 -61 -273 -57 -277 13 -12 167 -99 169 -96
2 2 62 232 134 512 83 320 141 527 157 557 29 54 92 102 155 119 l44 12 270
-139 c148 -76 471 -242 717 -369 246 -126 447 -233 447 -236 0 -4 -17 -9 -38
-13 -85 -13 -166 -104 -201 -226 -34 -115 -261 -1005 -261 -1021 0 -13 100
-79 120 -79 5 0 10 7 12 15 2 12 7 13 28 2 23 -12 25 -18 22 -65 -3 -43 0 -53
17 -64 32 -19 25 -31 -13 -25 -26 4 -39 1 -53 -15 -25 -28 -87 -58 -119 -58
l-28 0 28 29 c17 18 26 36 23 45 -4 9 -1 13 6 10 7 -2 24 7 37 21 18 19 21 28
12 37 -17 17 -85 -61 -70 -80 8 -9 7 -11 -6 -6 -19 7 -86 -50 -86 -73 0 -27
94 -27 160 1 13 5 15 -11 18 -106 2 -109 1 -115 -29 -176 -36 -73 -65 -205
-75 -338 l-7 -94 52 0 c80 0 137 18 183 60 l42 37 4 109 c2 60 8 113 13 118
15 16 10 79 -11 139 -30 85 -25 168 9 148 10 -7 13 -33 13 -97 -2 -94 6 -121
32 -111 12 5 16 21 16 69 -1 35 -5 82 -9 106 -5 23 -5 42 0 42 17 0 77 61 89
90 7 16 18 30 24 30 18 0 409 1444 402 1483 -3 18 -16 44 -29 59 -24 30 -20
28 -862 483 -313 169 -682 369 -820 443 -204 111 -259 136 -300 140 -41 3 -55
0 -78 -18z"/>
<path d="M3500 4007 l0 -46 -155 -88 -155 -88 56 -3 c55 -3 62 -1 168 64 198
120 208 134 129 181 l-43 25 0 -45z"/>
<path d="M4508 3668 c-144 -84 -175 -104 -168 -110 28 -26 315 -178 335 -178
28 0 325 165 325 181 0 4 -67 46 -150 93 -105 61 -159 86 -183 86 -23 0 -71
-22 -159 -72z"/>
<path d="M4270 2882 c0 -387 1 -420 18 -434 39 -33 253 -149 269 -146 17 3 18
31 21 414 l2 410 -22 21 c-34 30 -251 153 -271 153 -16 0 -17 -29 -17 -418z
m174 52 c10 -26 7 -422 -3 -429 -24 -14 -31 42 -31 233 0 109 3 202 7 205 11
11 20 8 27 -9z"/>
<path d="M1937 2949 c-23 -17 -24 -22 -16 -61 9 -36 40 -78 59 -78 12 0 30 24
30 42 0 10 5 18 10 18 6 0 10 -5 10 -12 0 -7 11 3 25 22 27 36 32 65 14 75 -6
4 -32 9 -59 10 -37 3 -55 -1 -73 -16z"/>
<path d="M1060 2886 l0 -45 -117 -69 c-65 -38 -136 -79 -158 -90 l-40 -21 64
-1 c56 0 71 4 125 37 161 97 216 136 216 153 0 11 -19 32 -45 50 l-45 31 0
-45z"/>
<path d="M2210 2685 c-24 -52 -46 -95 -50 -95 -4 0 -21 27 -39 59 -49 92 -140
134 -210 98 -16 -7 -43 -47 -74 -107 -56 -110 -56 -106 -1 -281 l36 -114 9
-295 c6 -162 12 -305 15 -317 5 -28 29 -29 72 -3 34 21 42 40 17 40 -13 0 -15
35 -15 255 0 249 1 255 19 245 23 -12 27 -51 40 -386 4 -127 11 -237 15 -243
15 -23 106 -6 106 19 0 6 -10 10 -21 10 -21 0 -21 1 -14 148 3 81 7 297 7 480
0 329 0 334 19 313 11 -11 25 -18 32 -15 6 3 38 59 69 125 46 96 56 125 48
140 -20 36 -37 19 -80 -76z"/>
<path d="M898 2621 c-25 -22 -33 -39 -37 -77 -5 -42 -11 -51 -41 -71 -67 -42
-89 -64 -100 -99 -11 -32 -9 -41 11 -81 28 -54 66 -84 79 -62 39 66 94 149 96
146 2 -2 -1 -19 -6 -38 -6 -18 -10 -50 -10 -69 0 -19 -4 -42 -10 -50 -5 -8 -5
-17 0 -20 13 -8 -6 -147 -24 -174 -9 -14 -12 -27 -8 -30 16 -9 163 85 172 110
7 17 5 61 -4 132 -14 104 -14 107 6 125 11 9 16 17 12 18 -5 0 -24 1 -43 2
-36 2 -69 35 -43 44 19 7 14 30 -13 57 -17 17 -25 36 -25 61 0 32 2 35 29 35
16 0 36 -6 43 -14 8 -7 24 -17 36 -20 20 -7 22 -4 22 33 0 30 -6 44 -22 55
-36 25 -83 20 -120 -13z"/>
<path d="M5150 2504 c-1 -5 -2 -60 -4 -122 -2 -82 -6 -116 -17 -126 -8 -7 -90
-57 -184 -111 -93 -54 -183 -106 -200 -116 l-30 -19 96 0 95 0 130 80 c71 43
157 96 192 117 111 67 147 97 150 127 5 36 -4 45 -101 101 -45 27 -92 55 -104
63 -13 8 -23 10 -23 6z"/>
<path d="M1060 2060 c0 -9 -22 -24 -138 -97 l-24 -14 46 -30 c25 -15 46 -31
46 -33 0 -7 -99 -66 -110 -66 -5 0 -42 20 -82 45 -48 30 -74 41 -79 33 -18
-30 44 -114 134 -182 37 -27 53 -34 66 -27 34 19 122 104 138 135 20 38 32
246 14 246 -6 0 -11 -5 -11 -10z"/>
<path d="M4550 992 c0 -25 -6 -45 -17 -54 -10 -8 -80 -51 -156 -94 l-139 -79
56 -3 c55 -3 60 -1 190 77 73 44 139 87 145 95 19 23 5 49 -39 74 l-40 23 0
-39z"/>
</g>
</svg>
